<svg xmlns="http://www.w3.org/2000/svg" viewBox="0 0 512 512">
  <rect width="512" height="512" fill="#0A0A0A"/>
  <!-- Capsule wordmark: minimal hanger silhouette -->
  <path
    d="M256 96 C220 96 192 116 192 144 C192 152 196 160 204 166
       L148 210 C140 216 136 224 136 234 L136 400 C136 408 143 416 152 416
       L360 416 C369 416 376 408 376 400 L376 234 C376 224 372 216 364 210
       L308 166 C316 160 320 152 320 144 C320 116 292 96 256 96 Z
       M256 120 C278 120 296 130 296 144 C296 148 294 152 290 156
       L256 178 L222 156 C218 152 216 148 216 144 C216 130 234 120 256 120 Z
       M160 234 L256 174 L352 234 L352 392 L160 392 Z"
    fill="#C8B89A"
    fill-rule="evenodd"
  />
</svg>
